<svg width="99" height="99" viewBox="0 0 99 99" fill="none" xmlns="http://www.w3.org/2000/svg">
<g clip-path="url(#clip0_1_2)">
<circle cx="49.5" cy="49.5" r="43.5" fill="#CFBFF7"/>
<path d="M49.3333 46.3334C54.8561 46.3334 59.3333 41.8563 59.3333 36.3334C59.3333 30.8106 54.8561 26.3334 49.3333 26.3334C43.8105 26.3334 39.3333 30.8106 39.3333 36.3334C39.3333 41.8563 43.8105 46.3334 49.3333 46.3334Z" fill="#E7E4EE"/>
<path d="M18.9292 74.2417C23.1083 71.0458 27.7792 68.526 32.9417 66.6823C38.1042 64.8385 43.5125 63.9167 49.1667 63.9167C54.8208 63.9167 60.2292 64.8385 65.3917 66.6823C70.5542 68.526 75.225 71.0458 79.4042 74.2417C82.2722 70.8819 84.5052 67.0715 86.1031 62.8104C87.701 58.5493 88.5 54.0014 88.5 49.1667C88.5 38.2681 84.6691 28.9878 77.0073 21.326C69.3455 13.6642 60.0653 9.83333 49.1667 9.83333C38.2681 9.83333 28.9878 13.6642 21.326 21.326C13.6642 28.9878 9.83333 38.2681 9.83333 49.1667C9.83333 54.0014 10.6323 58.5493 12.2302 62.8104C13.8281 67.0715 16.0611 70.8819 18.9292 74.2417ZM49.1667 54.0833C44.3319 54.0833 40.2552 52.424 36.9365 49.1052C33.6177 45.7865 31.9583 41.7097 31.9583 36.875C31.9583 32.0403 33.6177 27.9635 36.9365 24.6448C40.2552 21.326 44.3319 19.6667 49.1667 19.6667C54.0014 19.6667 58.0781 21.326 61.3969 24.6448C64.7156 27.9635 66.375 32.0403 66.375 36.875C66.375 41.7097 64.7156 45.7865 61.3969 49.1052C58.0781 52.424 54.0014 54.0833 49.1667 54.0833ZM49.1667 98.3333C42.3653 98.3333 35.9736 97.0427 29.9917 94.4615C24.0097 91.8802 18.8062 88.3771 14.3812 83.9521C9.95625 79.5271 6.45312 74.3236 3.87187 68.3417C1.29062 62.3597 0 55.9681 0 49.1667C0 42.3653 1.29062 35.9736 3.87187 29.9917C6.45312 24.0097 9.95625 18.8062 14.3812 14.3812C18.8062 9.95625 24.0097 6.45312 29.9917 3.87187C35.9736 1.29062 42.3653 0 49.1667 0C55.9681 0 62.3597 1.29062 68.3417 3.87187C74.3236 6.45312 79.5271 9.95625 83.9521 14.3812C88.3771 18.8062 91.8802 24.0097 94.4615 29.9917C97.0427 35.9736 98.3333 42.3653 98.3333 49.1667C98.3333 55.9681 97.0427 62.3597 94.4615 68.3417C91.8802 74.3236 88.3771 79.5271 83.9521 83.9521C79.5271 88.3771 74.3236 91.8802 68.3417 94.4615C62.3597 97.0427 55.9681 98.3333 49.1667 98.3333ZM49.1667 88.5C53.5097 88.5 57.6069 87.8649 61.4583 86.5948C65.3097 85.3246 68.8333 83.5014 72.0292 81.125C68.8333 78.7486 65.3097 76.9253 61.4583 75.6552C57.6069 74.3851 53.5097 73.75 49.1667 73.75C44.8236 73.75 40.7264 74.3851 36.875 75.6552C33.0236 76.9253 29.5 78.7486 26.3042 81.125C29.5 83.5014 33.0236 85.3246 36.875 86.5948C40.7264 87.8649 44.8236 88.5 49.1667 88.5ZM49.1667 44.25C51.2972 44.25 53.059 43.5535 54.4521 42.1604C55.8451 40.7674 56.5417 39.0056 56.5417 36.875C56.5417 34.7444 55.8451 32.9826 54.4521 31.5896C53.059 30.1965 51.2972 29.5 49.1667 29.5C47.0361 29.5 45.2743 30.1965 43.8812 31.5896C42.4882 32.9826 41.7917 34.7444 41.7917 36.875C41.7917 39.0056 42.4882 40.7674 43.8812 42.1604C45.2743 43.5535 47.0361 44.25 49.1667 44.25Z" fill="#E7E4EE"/>
<path d="M48.3333 89.3334C63.7973 89.3334 76.3333 85.5278 76.3333 80.8334C76.3333 76.139 63.7973 72.3334 48.3333 72.3334C32.8693 72.3334 20.3333 76.139 20.3333 80.8334C20.3333 85.5278 32.8693 89.3334 48.3333 89.3334Z" fill="#E7E4EE"/>
</g>
<defs>
<clipPath id="clip0_1_2">
<rect width="99" height="99" fill="white"/>
</clipPath>
</defs>
</svg>
